<mxfile host="Electron" modified="2023-10-05T12:11:39.029Z" agent="Mozilla/5.0 (Macintosh; Intel Mac OS X 10_15_7) AppleWebKit/537.36 (KHTML, like Gecko) draw.io/22.0.2 Chrome/114.0.5735.289 Electron/25.8.4 Safari/537.36" etag="OOjII9cMSbqk6O5XWPna" version="22.0.2" type="device">
  <diagram name="Страница — 1" id="Im1ipqhpt82EnKc-YsLn">
    <mxGraphModel dx="907" dy="674" grid="1" gridSize="10" guides="1" tooltips="1" connect="1" arrows="1" fold="1" page="1" pageScale="1" pageWidth="827" pageHeight="1169" math="0" shadow="0">
      <root>
        <mxCell id="0" />
        <mxCell id="1" parent="0" />
        <mxCell id="A7DEZniaGQUI35fXbSPs-15" value="" style="rounded=0;whiteSpace=wrap;html=1;" parent="1" vertex="1">
          <mxGeometry x="10" y="91" width="810" height="749" as="geometry" />
        </mxCell>
        <mxCell id="A7DEZniaGQUI35fXbSPs-2" value="" style="rounded=0;whiteSpace=wrap;html=1;" parent="1" vertex="1">
          <mxGeometry x="60" y="136" width="720" height="674" as="geometry" />
        </mxCell>
        <mxCell id="A7DEZniaGQUI35fXbSPs-9" value="" style="rounded=1;whiteSpace=wrap;html=1;" parent="1" vertex="1">
          <mxGeometry x="100" y="181" width="220" height="190" as="geometry" />
        </mxCell>
        <mxCell id="A7DEZniaGQUI35fXbSPs-10" value="service&lt;br&gt;type:ClusterIP&lt;br&gt;name:&amp;nbsp;react-app" style="text;html=1;strokeColor=none;fillColor=none;align=center;verticalAlign=middle;whiteSpace=wrap;rounded=0;" parent="1" vertex="1">
          <mxGeometry x="150" y="211" width="120" height="30" as="geometry" />
        </mxCell>
        <mxCell id="A7DEZniaGQUI35fXbSPs-11" value="selector&lt;br&gt;app.kubernetes.io/name:&amp;nbsp;react-app" style="text;html=1;strokeColor=none;fillColor=none;align=center;verticalAlign=middle;whiteSpace=wrap;rounded=0;" parent="1" vertex="1">
          <mxGeometry x="115" y="261" width="190" height="30" as="geometry" />
        </mxCell>
        <mxCell id="A7DEZniaGQUI35fXbSPs-12" value="ports&lt;br&gt;port: 3000&lt;br&gt;targetPort: http" style="text;html=1;strokeColor=none;fillColor=none;align=center;verticalAlign=middle;whiteSpace=wrap;rounded=0;" parent="1" vertex="1">
          <mxGeometry x="160" y="311" width="100" height="30" as="geometry" />
        </mxCell>
        <mxCell id="A7DEZniaGQUI35fXbSPs-13" value="namespace&lt;br&gt;labs" style="text;html=1;strokeColor=none;fillColor=none;align=center;verticalAlign=middle;whiteSpace=wrap;rounded=0;" parent="1" vertex="1">
          <mxGeometry x="345" y="151" width="60" height="30" as="geometry" />
        </mxCell>
        <mxCell id="A7DEZniaGQUI35fXbSPs-18" value="minikube node" style="text;html=1;strokeColor=none;fillColor=none;align=center;verticalAlign=middle;whiteSpace=wrap;rounded=0;" parent="1" vertex="1">
          <mxGeometry x="329" y="101" width="110" height="30" as="geometry" />
        </mxCell>
        <mxCell id="Rpb3NorsBrquQk5KyYfB-4" value="" style="rounded=1;whiteSpace=wrap;html=1;" parent="1" vertex="1">
          <mxGeometry x="430.5" y="179" width="285" height="491" as="geometry" />
        </mxCell>
        <mxCell id="Rpb3NorsBrquQk5KyYfB-1" value="" style="rounded=1;whiteSpace=wrap;html=1;" parent="1" vertex="1">
          <mxGeometry x="463" y="450" width="220" height="180" as="geometry" />
        </mxCell>
        <mxCell id="Rpb3NorsBrquQk5KyYfB-2" value="label&lt;br&gt;app.kubernetes.io/name:&amp;nbsp;react-app" style="text;html=1;strokeColor=none;fillColor=none;align=center;verticalAlign=middle;whiteSpace=wrap;rounded=0;" parent="1" vertex="1">
          <mxGeometry x="478" y="518" width="190" height="30" as="geometry" />
        </mxCell>
        <mxCell id="Rpb3NorsBrquQk5KyYfB-3" value="pod&lt;br&gt;name:&amp;nbsp;react-app" style="text;html=1;strokeColor=none;fillColor=none;align=center;verticalAlign=middle;whiteSpace=wrap;rounded=0;" parent="1" vertex="1">
          <mxGeometry x="513" y="468" width="120" height="30" as="geometry" />
        </mxCell>
        <mxCell id="A7DEZniaGQUI35fXbSPs-3" value="" style="rounded=1;whiteSpace=wrap;html=1;" parent="1" vertex="1">
          <mxGeometry x="463" y="241" width="220" height="179" as="geometry" />
        </mxCell>
        <mxCell id="A7DEZniaGQUI35fXbSPs-4" value="pod&lt;br&gt;name:&amp;nbsp;react-app" style="text;html=1;strokeColor=none;fillColor=none;align=center;verticalAlign=middle;whiteSpace=wrap;rounded=0;" parent="1" vertex="1">
          <mxGeometry x="513" y="271" width="120" height="30" as="geometry" />
        </mxCell>
        <mxCell id="A7DEZniaGQUI35fXbSPs-5" value="label&lt;br&gt;app.kubernetes.io/name:&amp;nbsp;react-app" style="text;html=1;strokeColor=none;fillColor=none;align=center;verticalAlign=middle;whiteSpace=wrap;rounded=0;" parent="1" vertex="1">
          <mxGeometry x="478" y="321" width="190" height="30" as="geometry" />
        </mxCell>
        <mxCell id="Rpb3NorsBrquQk5KyYfB-5" value="ReplicaSet" style="text;html=1;strokeColor=none;fillColor=none;align=center;verticalAlign=middle;whiteSpace=wrap;rounded=0;" parent="1" vertex="1">
          <mxGeometry x="543" y="187" width="60" height="30" as="geometry" />
        </mxCell>
        <mxCell id="pnmV5RWao5AuyzkVsy0K-1" style="edgeStyle=orthogonalEdgeStyle;rounded=0;orthogonalLoop=1;jettySize=auto;html=1;exitX=1;exitY=0.5;exitDx=0;exitDy=0;entryX=0;entryY=0.5;entryDx=0;entryDy=0;fillColor=#f0a30a;strokeColor=#BD7000;" parent="1" source="A7DEZniaGQUI35fXbSPs-11" target="A7DEZniaGQUI35fXbSPs-5" edge="1">
          <mxGeometry relative="1" as="geometry" />
        </mxCell>
        <mxCell id="pnmV5RWao5AuyzkVsy0K-2" style="edgeStyle=orthogonalEdgeStyle;rounded=0;orthogonalLoop=1;jettySize=auto;html=1;exitX=1;exitY=0.5;exitDx=0;exitDy=0;entryX=0;entryY=0.5;entryDx=0;entryDy=0;fillColor=#f0a30a;strokeColor=#BD7000;" parent="1" source="A7DEZniaGQUI35fXbSPs-11" target="Rpb3NorsBrquQk5KyYfB-2" edge="1">
          <mxGeometry relative="1" as="geometry" />
        </mxCell>
        <mxCell id="pnmV5RWao5AuyzkVsy0K-8" style="edgeStyle=orthogonalEdgeStyle;rounded=0;orthogonalLoop=1;jettySize=auto;html=1;exitX=1;exitY=0.5;exitDx=0;exitDy=0;entryX=0;entryY=0.5;entryDx=0;entryDy=0;fillColor=#fad9d5;strokeColor=#ae4132;" parent="1" source="pnmV5RWao5AuyzkVsy0K-3" target="pnmV5RWao5AuyzkVsy0K-6" edge="1">
          <mxGeometry relative="1" as="geometry">
            <Array as="points">
              <mxPoint x="360" y="445" />
              <mxPoint x="360" y="386" />
            </Array>
          </mxGeometry>
        </mxCell>
        <mxCell id="pnmV5RWao5AuyzkVsy0K-9" style="edgeStyle=orthogonalEdgeStyle;rounded=0;orthogonalLoop=1;jettySize=auto;html=1;exitX=1;exitY=0.5;exitDx=0;exitDy=0;entryX=0;entryY=0.5;entryDx=0;entryDy=0;fillColor=#fad9d5;strokeColor=#ae4132;" parent="1" source="pnmV5RWao5AuyzkVsy0K-3" target="pnmV5RWao5AuyzkVsy0K-7" edge="1">
          <mxGeometry relative="1" as="geometry">
            <Array as="points">
              <mxPoint x="360" y="445" />
              <mxPoint x="360" y="585" />
            </Array>
          </mxGeometry>
        </mxCell>
        <mxCell id="pnmV5RWao5AuyzkVsy0K-3" value="" style="rounded=1;whiteSpace=wrap;html=1;" parent="1" vertex="1">
          <mxGeometry x="100" y="410" width="220" height="70" as="geometry" />
        </mxCell>
        <mxCell id="pnmV5RWao5AuyzkVsy0K-4" value="ConfigMap&lt;br&gt;name:&amp;nbsp;app-env" style="text;html=1;strokeColor=none;fillColor=none;align=center;verticalAlign=middle;whiteSpace=wrap;rounded=0;" parent="1" vertex="1">
          <mxGeometry x="155" y="426" width="110" height="30" as="geometry" />
        </mxCell>
        <mxCell id="pnmV5RWao5AuyzkVsy0K-6" value="container&lt;br&gt;envFrom: ConfigMapRef: app-env" style="text;html=1;strokeColor=none;fillColor=none;align=center;verticalAlign=middle;whiteSpace=wrap;rounded=0;" parent="1" vertex="1">
          <mxGeometry x="479.5" y="371" width="187" height="30" as="geometry" />
        </mxCell>
        <mxCell id="pnmV5RWao5AuyzkVsy0K-7" value="container&lt;br&gt;envFrom: ConfigMapRef: app-env" style="text;html=1;strokeColor=none;fillColor=none;align=center;verticalAlign=middle;whiteSpace=wrap;rounded=0;" parent="1" vertex="1">
          <mxGeometry x="478" y="570" width="187" height="30" as="geometry" />
        </mxCell>
        <mxCell id="pnmV5RWao5AuyzkVsy0K-10" value="" style="rounded=1;whiteSpace=wrap;html=1;" parent="1" vertex="1">
          <mxGeometry x="100" y="510" width="220" height="170" as="geometry" />
        </mxCell>
        <mxCell id="pnmV5RWao5AuyzkVsy0K-11" value="Ingress" style="text;html=1;strokeColor=none;fillColor=none;align=center;verticalAlign=middle;whiteSpace=wrap;rounded=0;" parent="1" vertex="1">
          <mxGeometry x="180" y="518" width="60" height="30" as="geometry" />
        </mxCell>
        <mxCell id="pnmV5RWao5AuyzkVsy0K-12" value="mydomainitmo.com" style="text;html=1;strokeColor=none;fillColor=none;align=center;verticalAlign=middle;whiteSpace=wrap;rounded=0;" parent="1" vertex="1">
          <mxGeometry x="180" y="600" width="60" height="30" as="geometry" />
        </mxCell>
        <mxCell id="pnmV5RWao5AuyzkVsy0K-14" style="edgeStyle=orthogonalEdgeStyle;rounded=0;orthogonalLoop=1;jettySize=auto;html=1;exitX=0;exitY=0.5;exitDx=0;exitDy=0;entryX=0;entryY=0.5;entryDx=0;entryDy=0;fillColor=#e3c800;strokeColor=#B09500;" parent="1" source="pnmV5RWao5AuyzkVsy0K-13" target="A7DEZniaGQUI35fXbSPs-12" edge="1">
          <mxGeometry relative="1" as="geometry">
            <Array as="points">
              <mxPoint x="80" y="570" />
              <mxPoint x="80" y="326" />
            </Array>
          </mxGeometry>
        </mxCell>
        <mxCell id="pnmV5RWao5AuyzkVsy0K-13" value="svc&lt;br&gt;name: react-app&lt;br&gt;port: 3000" style="text;html=1;strokeColor=none;fillColor=none;align=center;verticalAlign=middle;whiteSpace=wrap;rounded=0;" parent="1" vertex="1">
          <mxGeometry x="155" y="555" width="110" height="30" as="geometry" />
        </mxCell>
        <mxCell id="pnmV5RWao5AuyzkVsy0K-15" value="Traffic" style="rounded=0;whiteSpace=wrap;html=1;" parent="1" vertex="1">
          <mxGeometry x="343" y="870" width="120" height="60" as="geometry" />
        </mxCell>
        <mxCell id="E9k2axQrdzAtQaNZH_d_-4" style="edgeStyle=orthogonalEdgeStyle;rounded=0;orthogonalLoop=1;jettySize=auto;html=1;exitX=0;exitY=0.5;exitDx=0;exitDy=0;entryX=0;entryY=0.5;entryDx=0;entryDy=0;" edge="1" parent="1" source="E9k2axQrdzAtQaNZH_d_-1" target="E9k2axQrdzAtQaNZH_d_-3">
          <mxGeometry relative="1" as="geometry" />
        </mxCell>
        <mxCell id="E9k2axQrdzAtQaNZH_d_-1" value="" style="rounded=1;whiteSpace=wrap;html=1;" vertex="1" parent="1">
          <mxGeometry x="100" y="720" width="220" height="70" as="geometry" />
        </mxCell>
        <mxCell id="E9k2axQrdzAtQaNZH_d_-2" value="Secret&lt;br&gt;react-app-tls&lt;br&gt;name:&amp;nbsp;app-env" style="text;html=1;strokeColor=none;fillColor=none;align=center;verticalAlign=middle;whiteSpace=wrap;rounded=0;" vertex="1" parent="1">
          <mxGeometry x="155" y="736" width="110" height="30" as="geometry" />
        </mxCell>
        <mxCell id="E9k2axQrdzAtQaNZH_d_-3" value="tls&lt;br&gt;secretName:&amp;nbsp; react-app-tls" style="text;html=1;strokeColor=none;fillColor=none;align=center;verticalAlign=middle;whiteSpace=wrap;rounded=0;" vertex="1" parent="1">
          <mxGeometry x="120" y="637" width="180" height="30" as="geometry" />
        </mxCell>
        <mxCell id="E9k2axQrdzAtQaNZH_d_-5" style="edgeStyle=orthogonalEdgeStyle;rounded=0;orthogonalLoop=1;jettySize=auto;html=1;exitX=0.5;exitY=0;exitDx=0;exitDy=0;entryX=1;entryY=0.609;entryDx=0;entryDy=0;entryPerimeter=0;" edge="1" parent="1" source="pnmV5RWao5AuyzkVsy0K-15" target="pnmV5RWao5AuyzkVsy0K-10">
          <mxGeometry relative="1" as="geometry" />
        </mxCell>
      </root>
    </mxGraphModel>
  </diagram>
</mxfile>
